<svg xmlns="http://www.w3.org/2000/svg" viewBox="0 0 400 400">
  <circle cx="200" cy="200" r="200" fill="#818a40"/>
  <path fill="#F0F3DD" fill-rule="evenodd" d="M 194.5 5 L 203.5 5 L 221.5 8 L 248.5 19 Q 276.6 35.4 297 59.5 Q 323.2 89.3 338 130.5 Q 349.7 163.3 349 208.5 L 347 230.5 L 343 252.5 L 331 287.5 Q 310.5 331.5 276.5 362 Q 258.5 379 233.5 389 L 209.5 395 L 190.5 395 Q 166.2 390.8 148.5 380 Q 123.1 364.4 104 342.5 Q 79 314.5 64 276.5 Q 55.7 254.3 52 227.5 L 51 183.5 Q 54.3 141.8 69 111.5 Q 89.3 68.8 122.5 39 Q 139.2 23.2 161.5 13 Q 175.6 6.6 194.5 5 Z M 199 11 Q 169 14 155 31 L 153 33 L 151 34 Q 134 52 125 78 L 116 118 L 112 167 L 112 232 L 117 290 Q 121 315 130 336 L 146 362 Q 150 370 162 371 L 182 371 L 206 365 Q 222 358 235 346 Q 245 337 251 323 L 253 322 Q 254 350 241 365 Q 227 384 198 388 L 198 389 Q 219 389 232 380 Q 251 365 256 336 Q 257 315 248 304 Q 237 288 214 286 L 216 280 L 212 277 L 210 277 L 207 276 L 205 272 Q 207 268 215 269 L 217 269 Q 234 271 245 280 Q 261 291 265 315 Q 266 347 250 363 L 251 364 Q 264 350 267 326 Q 267 301 256 288 Q 243 270 217 266 Q 196 266 181 271 Q 171 271 166 267 L 158 257 Q 157 245 162 240 Q 181 222 215 218 Q 250 216 268 232 Q 278 240 284 253 L 286 254 Q 284 242 276 236 Q 259 215 225 212 Q 200 211 185 219 L 183 217 L 178 213 L 166 216 Q 156 218 153 213 L 154 208 Q 159 200 169 198 L 193 192 L 200 192 L 203 191 L 217 191 L 235 194 Q 253 199 266 210 Q 279 220 287 236 L 287 211 L 288 210 L 287 156 L 281 103 Q 276 80 268 62 Q 261 46 250 36 L 249 34 L 247 31 Q 230 14 199 11 Z M 249 365 L 246 369 L 249 367 L 249 365 Z "/>
</svg>