<svg xmlns="http://www.w3.org/2000/svg" viewBox="0 0 300 250" role="img" aria-label="Zoho WorkDrive">
  <path
    fill="#226DB4"
    d="M261.5,38.4h-108c-3.6,0-7.1-1.2-10-3.3l-24.5-18.3c-5.8-4.3-13-6.7-20.2-6.7H39.1C20.5,10,5.3,25.2,5.3,43.8
	v176c0,18.6,15.2,33.8,33.8,33.8H56c4.7,0,8.5-3.8,8.5-8.5c0-4.7-3.8-8.5-8.5-8.5H39.1c-9.2,0-16.8-7.5-16.8-16.8v-176
	c0-9.2,7.5-16.8,16.8-16.8h59.8c3.6,0,7.1,1.2,10,3.3l24.5,18.3c5.8,4.3,13,6.7,20.2,6.7h108c9.2,0,16.8,7.5,16.8,16.8v49
	c-0.6-14.8-12.8-26.7-27.8-26.7c-15.3,0-27.8,12.5-27.8,27.8c0,7.4,2.9,14.1,7.6,19.1l-6,2.2c-1.7,0.6-3.4,1.4-5,2.3
	c0-0.4,0-0.8,0-1.2c0-14.8-12.1-26.9-26.9-26.9c-14.8,0-26.9,12.1-26.9,26.9c0,6.9,2.6,13.2,6.9,18l-4.2,1.5c-2.1,0.8-4.1,1.7-6,2.8
	c0-0.2,0-0.3,0-0.5c0-14-11.4-25.5-25.5-25.5c-14,0-25.5,11.4-25.5,25.5c0,6.2,2.2,11.9,5.9,16.3l-7.3,2.7
	c-8.3,3.1-15.4,8.5-20.4,15.8c-5.1,7.3-7.7,15.8-7.7,24.7v19.2c0,4.7,3.8,8.5,8.5,8.5h171.3c18.6,0,33.8-15.2,33.8-33.7V72.1
	C295.3,53.5,280.1,38.4,261.5,38.4z M250.6,111.4c5.9,0,10.8,4.8,10.8,10.8c0,5.9-4.8,10.8-10.8,10.8c-5.9,0-10.8-4.8-10.8-10.8
	C239.8,116.2,244.6,111.4,250.6,111.4z M192.5,134.7c5.5,0,9.9,4.4,9.9,9.9c0,5.5-4.4,9.9-9.9,9.9s-9.9-4.4-9.9-9.9
	C182.6,139.1,187,134.7,192.5,134.7z M174.2,180l25.2-9.3c-0.9,3.4-1.4,7-1.4,10.6v55.3h-40.9v-32.1
	C157.2,193.7,164,183.8,174.2,180z M136.8,157.9c4.7,0,8.5,3.8,8.5,8.5s-3.8,8.5-8.5,8.5s-8.5-3.8-8.5-8.5S132.1,157.9,136.8,157.9z
	 M115.8,201.3l26.3-9.7c-1.3,4.2-2,8.5-2,12.9v32.1H98.8v-10.7C98.8,215,105.6,205.1,115.8,201.3z M261.5,236.6h-46.5v-55.3
	c0-9.7,6.1-18.5,15.3-21.9l29.6-11c0.4-0.2,0.8-0.4,1.2-0.6c9.8-4,16.7-13.5,17.2-24.6v96.5C278.3,229.1,270.8,236.6,261.5,236.6z"
  />
</svg>
